<svg width="512" height="512" viewBox="0 0 512 512" fill="none" xmlns="http://www.w3.org/2000/svg">
<path d="M269.766 23.2471L272.275 25.7556C275.729 30.089 277.457 35.2168 277.461 41.139C277.47 100.673 277.47 160.203 277.46 219.731C277.46 223.089 277.722 225.494 278.245 226.948C280.662 233.689 286.248 233.593 293.224 233.588C352.315 233.578 411.408 233.567 470.502 233.554C476.029 233.554 480.969 235.304 485.322 238.802L487.835 241.316C494.742 250.81 494.725 260.297 487.782 269.776L485.297 272.26C480.932 275.733 475.88 277.47 470.14 277.47C410.006 277.47 349.871 277.468 289.734 277.465C284.524 277.465 280.561 278.703 278.428 283.522C277.786 284.967 277.465 287.211 277.465 290.254C277.465 350.297 277.467 410.34 277.47 470.381C277.47 476.005 275.724 480.987 272.232 485.326L269.685 487.873C260.203 494.736 250.732 494.709 241.272 487.792L238.773 485.293C234.161 479.534 233.568 474.291 233.568 467.252C233.581 408.106 233.585 348.961 233.578 289.815C233.582 287.482 233.437 285.819 233.145 284.827C232.09 281.211 228.855 278.332 225.186 277.639C224.56 277.526 222.629 277.47 219.394 277.47C159.818 277.47 100.24 277.467 40.6575 277.461C35.0179 277.457 30.023 275.702 25.6737 272.193L23.2711 269.79C16.3123 260.283 16.3007 250.78 23.2374 241.282L25.7797 238.74C30.1 235.305 35.1397 233.588 40.8982 233.588C100.66 233.581 160.418 233.582 220.174 233.588C223.364 233.588 225.698 233.299 227.174 232.721C233.646 230.189 233.593 224.887 233.593 218.05C233.583 158.96 233.58 99.8689 233.583 40.7779C233.586 35.106 235.302 30.1098 238.73 25.7893L241.364 23.1556C250.849 16.3089 260.316 16.3394 269.766 23.2471Z" fill="#353535"/>
</svg>
