<svg width="512" height="512" viewBox="0 0 512 512" fill="none" xmlns="http://www.w3.org/2000/svg">
<path d="M37.6075 9H42.6445C50.4627 9.88301 57.3463 13.2958 63.2953 19.2384C123.076 78.9993 182.843 138.767 242.597 198.541C245.968 201.911 248.646 204.064 250.632 204.999C259.826 209.34 265.337 203.636 272.336 196.626C331.652 137.291 390.969 77.952 450.285 18.61C455.834 13.0605 462.55 9.85723 470.433 9H475.479C491.947 11.5975 501.454 21.1397 504 37.6269V42.6155C503.104 50.4853 499.775 57.3012 494.013 63.0633C433.64 123.437 373.263 183.81 312.884 244.183C307.653 249.413 304.917 254.634 307.615 261.614C308.42 263.709 310.351 266.284 313.406 269.339C373.689 329.622 433.972 389.902 494.255 450.178C499.901 455.824 503.149 462.579 504 470.442V475.557C501.37 491.967 491.834 501.448 475.392 504H470.375C459.962 502.85 454.104 498.18 447.036 491.113C387.669 431.719 328.291 372.335 268.904 312.961C266.564 310.615 264.75 309.091 263.461 308.388C258.772 305.816 252.633 306.174 248.253 309.161C247.512 309.677 245.517 311.559 242.269 314.808C182.456 374.62 122.637 434.433 62.8119 494.245C57.1465 499.904 50.3692 503.156 42.4802 504H37.6559C21.1236 501.441 11.5717 491.912 9 475.412V470.307C9.88945 462.521 13.2249 455.738 19.0063 449.956C78.9993 389.95 138.996 329.954 198.995 269.967C202.198 266.764 204.251 264.131 205.153 262.069C209.108 253.029 203.732 247.76 196.868 240.896C137.532 181.58 78.2033 122.257 18.8807 62.9279C13.1895 57.2303 9.8959 50.4917 9 42.7122V37.4238C11.649 21.027 21.1849 11.5523 37.6075 9Z" fill="#353535"/>
</svg>
