<svg width="512" height="512" viewBox="0 0 512 512" fill="none" xmlns="http://www.w3.org/2000/svg">
<path d="M345.51 61.89C345.41 61.7889 345.354 61.6523 345.354 61.51C345.354 61.3677 345.41 61.2311 345.51 61.13L380.1 26.53C383.272 23.3576 387.039 20.8414 391.184 19.125C395.329 17.4086 399.772 16.5257 404.259 16.5266C408.746 16.5275 413.189 17.4123 417.335 19.1304C421.48 20.8485 425.247 23.3663 428.42 26.54L485.47 83.59C488.644 86.7629 491.161 90.5296 492.88 94.6752C494.598 98.8207 495.482 103.264 495.483 107.751C495.484 112.238 494.601 116.681 492.885 120.826C491.169 124.971 488.652 128.738 485.48 131.91L450.88 166.5C450.779 166.6 450.642 166.656 450.5 166.656C450.358 166.656 450.221 166.6 450.12 166.5L345.51 61.89Z" fill="#353535"/>
<path d="M161.89 453.4C130.36 464.24 97.0401 477.06 67.7501 486.45C59.0367 489.243 49.5834 491.97 39.3901 494.63C34.9634 495.783 31.4734 496.08 28.9201 495.52C19.8601 493.52 14.2101 484.5 16.8001 475.5C21.2534 460.047 26.2467 444.243 31.7801 428.09C40.8467 401.63 49.8001 375.633 58.6401 350.1C59.3534 348.033 60.4934 346.213 62.0601 344.64C145.967 260.753 232.693 174.027 322.24 84.4601C322.316 84.3836 322.419 84.3397 322.526 84.3378C322.633 84.336 322.735 84.3763 322.81 84.4501L427.44 189.11C427.535 189.206 427.589 189.335 427.589 189.47C427.589 189.605 427.535 189.734 427.44 189.83C340.84 276.483 254.21 363.14 167.55 449.8C165.877 451.473 163.99 452.673 161.89 453.4Z" fill="#353535"/>
</svg>
