<svg width="512" height="512" viewBox="0 0 512 512" fill="none" xmlns="http://www.w3.org/2000/svg">
<path d="M205.199 31H209.823C215.602 31.4933 221.662 31.4933 227.115 32.2156C233.254 33.0348 239.429 33.7483 245.428 35.2546C251.409 36.752 257.434 38.0557 263.159 40.1609C267.828 41.8786 272.593 43.2528 277.05 45.3844C282.318 47.8949 287.85 50.097 292.818 53.092C298.112 56.2807 303.626 59.2668 308.541 62.7902C341.086 86.0743 363.422 116.578 375.548 154.303C377.327 159.823 378.796 165.481 379.952 171.277C386.923 206.241 383.922 240.154 370.95 273.016C366.185 285.093 359.772 296.896 352.399 307.528C352.354 307.59 352.325 307.663 352.316 307.739C352.306 307.815 352.315 307.893 352.343 307.965C352.371 308.038 352.417 308.102 352.475 308.154C352.534 308.205 352.605 308.241 352.681 308.259C359.722 309.857 365.818 313.224 370.968 318.363C404.17 351.471 437.628 384.906 471.342 418.666C477.801 425.138 481.354 433.438 482 443.568V445.929C481.09 458.848 475.505 468.802 465.246 475.79C459.773 479.513 453.305 481.583 445.841 482H443.427C433.344 481.342 424.973 477.687 418.314 471.033C380.754 433.515 347.349 400.065 318.098 370.686C312.984 365.547 309.686 359.531 308.206 352.637C308.195 352.577 308.168 352.521 308.129 352.474C308.089 352.427 308.039 352.39 307.981 352.368C307.923 352.345 307.861 352.337 307.799 352.344C307.737 352.351 307.677 352.373 307.625 352.408C275.433 374.236 239.925 384.6 201.103 383.502C195.207 383.338 189.32 382.842 183.442 382.014C144.372 376.517 110.732 359.854 82.5215 332.025C75.0577 324.667 68.1605 316.369 61.8301 307.132C58.9937 302.992 56.4745 298.464 53.8935 294.157C50.5727 288.634 48.0094 282.67 45.2611 276.742C43.1911 272.267 41.6584 267.467 40.0024 262.701C38.8396 259.377 37.8531 256.027 37.0427 252.651C36.3732 249.879 35.7243 247.213 35.096 244.652C33.7835 239.306 33.1581 233.695 32.3829 228.224C31.5197 222.041 31.4845 215.478 31 209.083V205.569C31.458 199.218 31.6078 192.488 32.3301 186.586C33.5574 176.644 35.5188 167.043 38.2142 157.782C39.2008 154.382 40.6366 150.063 42.5216 144.825C43.4612 142.211 44.4537 139.786 45.4989 137.549C48.2032 131.77 50.6784 125.957 53.9816 120.513C56.6594 116.1 59.0378 111.713 61.927 107.52C73.9713 90.0675 88.6493 75.225 105.961 62.9928C111.061 59.3901 116.443 56.4304 121.825 53.18C126.899 50.1235 132.44 47.8332 137.778 45.358C142.543 43.1559 147.582 41.5967 152.629 39.8086C158.284 37.809 164.336 36.5142 170.255 35.0608C175.681 33.7219 181.354 33.0876 186.842 32.3301C192.752 31.5109 199.05 31.4757 205.199 31ZM339.019 207.41C339.019 190.125 335.615 173.01 329 157.042C322.386 141.073 312.691 126.564 300.469 114.342C288.247 102.12 273.738 92.4249 257.769 85.8105C241.8 79.1961 224.685 75.7917 207.401 75.7917C172.494 75.7917 139.016 89.6586 114.333 114.342C89.6497 139.025 75.7829 172.502 75.7829 207.41C75.7829 242.317 89.6497 275.795 114.333 300.478C139.016 325.161 172.494 339.028 207.401 339.028C224.685 339.028 241.8 335.623 257.769 329.009C273.738 322.394 288.247 312.7 300.469 300.478C312.691 288.256 322.386 273.746 329 257.778C335.615 241.809 339.019 224.694 339.019 207.41Z" fill="#353535"/>
</svg>
